<svg xmlns="http://www.w3.org/2000/svg" width="272" height="188" viewBox="0 0 272 188">
  <g id="Group_955" data-name="Group 955" transform="translate(-1766 -1123)">
    <rect id="Rectangle_46" data-name="Rectangle 46" width="272" height="188" transform="translate(1766 1123)" fill="#6a99f1"/>
    <g id="Group_39" data-name="Group 39" transform="translate(-510.27 -1225.984)">
      <path id="Path_4" data-name="Path 4" d="M46923.977,53691.527c24.141,8.328,48.313-4.309,57.266-5.773,6.25-1.023,7.852,4.676-1.086,24.484-3.664,8.066-6.852,19.707-12.25,34.406h-21.086q6.059-16.746,12.188-33.461C46946.188,53707.141,46931.781,53705.02,46923.977,53691.527Zm104.359-20.922-27.531,74.508c-5.227,23.281,18.352,24.105,24.75,25.539-18.3-14.168,16.734-78.91,22.734-100.066C47049.594,53661.082,47036.742,53668.23,47028.336,53670.605Zm-30.945,10.234-23.141,63.8,20.078-.289,23.156-63.625C47018.75,53670.375,47004.859,53679.375,46997.391,53680.84Z" transform="translate(-44573.707 -51274.805)" fill="#fff" fill-rule="evenodd"/>
    </g>
  </g>
</svg>
