<svg xmlns="http://www.w3.org/2000/svg" width="640" height="440" viewBox="0 0 640 440">
  <g id="Group_1449" data-name="Group 1449" transform="translate(-890.776 -1372.417)">
    <rect id="Rectangle_120" data-name="Rectangle 120" width="640" height="440" transform="translate(890.777 1372.417)" fill="#a7edfa"/>
    <g id="Group_1448" data-name="Group 1448" transform="translate(1027.135 1461.878)">
      <g id="Group_1446" data-name="Group 1446" transform="translate(0)">
        <path id="Path_8838" data-name="Path 8838" d="M73.778,127.01c2.406,0,4.725.1,6.9.3a108.756,108.756,0,0,1,34.56,9.06,46.529,46.529,0,0,0,19.245-18.461,69.168,69.168,0,0,1-18.426-63.414,46.206,46.206,0,0,0-54.609,73.3A111.686,111.686,0,0,1,73.778,127.01Z" transform="translate(90.703 -11.435)" fill="#fff"/>
        <path id="Path_8839" data-name="Path 8839" d="M285.618,108.456c-5.779,23.117-115.585,92.468-115.585,92.468l-28.9,11.559L40,177.807V96.9c2.89-8.669,20.227-11.559,49.124-14.448S112.241,94.008,158.475,96.9s43.344,17.338,43.344,17.338h17.338s37.565-28.9,54.9-31.786S291.4,85.339,285.618,108.456Z" transform="translate(75.586 50.474)" fill="#fff"/>
        <rect id="Rectangle_121" data-name="Rectangle 121" width="57.793" height="109.806" transform="translate(0.001 132.923)" fill="#81d9e3"/>
        <path id="Path_8840" data-name="Path 8840" d="M71.274,91.322c1.6.691,3.148,1.37,4.572,2.007,3.164,1.415,5.985,2.668,8.418,3.459A58.459,58.459,0,0,0,99.38,80.443a69.9,69.9,0,0,1-8.887-7.6A46.619,46.619,0,0,1,71.274,91.322Z" transform="translate(134.683 33.621)" fill="#2d4356"/>
        <path id="Path_8841" data-name="Path 8841" d="M77.395,135.329a46.2,46.2,0,0,1,54.612-73.286,68.714,68.714,0,0,1,3.442-11.156,57.672,57.672,0,0,0-71.434,86.5C68.449,136.535,72.953,135.826,77.395,135.329Zm212,16.4c-3-3.121-9.752-7.849-21.224-4.434-6.882,2.047-28.786,17.575-46.906,30.979a36.258,36.258,0,0,1,1.5,13.307c21.151-15.759,43.66-31.709,48.7-33.208a9.386,9.386,0,0,1,9.6,1.367,12.125,12.125,0,0,1,1.72,11.875c-4.107,12.069-80.832,75.616-112.459,93.145-27.59,15.293-45.756,6.633-59.015.312A321.254,321.254,0,0,0,40.84,242.111v2.258a34.5,34.5,0,0,1-1.287,9.233,315.635,315.635,0,0,1,66.778,21.9,77.014,77.014,0,0,0,34.357,9.334,71.959,71.959,0,0,0,35.237-9.969c27.69-15.348,111.576-81.253,117.8-99.529a23.37,23.37,0,0,0-4.33-23.611Z" transform="translate(74.742 -18.994)" fill="#2d4356"/>
        <path id="Path_8842" data-name="Path 8842" d="M169.27,91.758c-15.806-1.454-39.474,4.873-53.79,9.36a34.439,34.439,0,0,0-2.567-11.325c15.25-4.735,39.908-11.15,57.407-9.545a103.2,103.2,0,0,1,35.488,10.116,68.311,68.311,0,0,0,12.726,4.779,118.119,118.119,0,0,0,19.81,1.524c17.01.459,34.6.933,42.952,11.71a24.315,24.315,0,0,1,3.675,21.618c-2.531,8.045-9.224,14.126-18.848,17.125-13.422,4.18-44.459,7.984-66.008,7.984a106.007,106.007,0,0,1-13.8-.745,5.779,5.779,0,0,1,1.566-11.451c17.392,2.38,59.434-2.036,74.8-6.824,5.986-1.865,9.879-5.17,11.259-9.557a12.6,12.6,0,0,0-1.786-11.07c-5-6.451-20.474-6.868-34.126-7.236a124.888,124.888,0,0,1-21.972-1.788,77.53,77.53,0,0,1-14.973-5.518A91.961,91.961,0,0,0,169.27,91.758ZM80.91,80.007H5.779a5.779,5.779,0,1,0,0,11.559H52.013v98.218H5.779a5.779,5.779,0,0,0,0,11.559H80.91a23.129,23.129,0,0,0,23.117-23.117v-75.1A23.129,23.129,0,0,0,80.91,80.007Zm11.559,98.218A11.574,11.574,0,0,1,80.91,189.784H63.572V91.565H80.91a11.574,11.574,0,0,1,11.559,11.559Z" transform="translate(0.001 47.137)" fill="#2d4356"/>
        <path id="Path_8843" data-name="Path 8843" d="M50.9,95.559v75.1a11.574,11.574,0,0,1-11.559,11.558H22V84H39.338A11.574,11.574,0,0,1,50.9,95.559Z" transform="translate(41.573 54.702)" fill="#fc785e"/>
        <path id="Path_8844" data-name="Path 8844" d="M132.793,36a57.793,57.793,0,1,0,57.793,57.793A57.793,57.793,0,0,0,132.793,36Zm0,104.027a46.234,46.234,0,1,1,46.234-46.234A46.234,46.234,0,0,1,132.793,140.027Z" transform="translate(141.723 -36)" fill="#2d4356"/>
        <path id="Path_8845" data-name="Path 8845" d="M171.468,86.234A46.234,46.234,0,1,1,125.234,40,46.234,46.234,0,0,1,171.468,86.234Z" transform="translate(149.281 -28.441)" fill="#fff"/>
        <path id="Path_8847" data-name="Path 8847" d="M171.468,86.234c0,.982-.029,1.936-.087,2.89a46.238,46.238,0,0,0-92.295,0c-.058-.954-.087-1.907-.087-2.89a46.234,46.234,0,1,1,92.468,0Z" transform="translate(149.281 -28.441)" fill="#f9edd2" opacity="0.5"/>
        <path id="Path_8848" data-name="Path 8848" d="M171.468,57.89A46.234,46.234,0,1,1,79,57.89c0-.982.029-1.936.087-2.89a46.238,46.238,0,0,0,92.295,0C171.439,55.954,171.468,56.907,171.468,57.89Z" transform="translate(149.281 -0.097)" fill="#ad9359" opacity="0.45"/>
        <path id="Path_8849" data-name="Path 8849" d="M116.052,54.494A46.2,46.2,0,0,0,48,95.234c0,.982.029,1.936.087,2.89A46.189,46.189,0,0,1,115.12,59.794Q115.487,57.111,116.052,54.494Z" transform="translate(90.703 -11.435)" fill="#f9edd2" opacity="0.5"/>
        <path id="Path_8850" data-name="Path 8850" d="M115.267,108.039a46.642,46.642,0,0,0,19.212-18.475q-1.117-1.132-2.183-2.311a46.506,46.506,0,0,1-24.121,17.929C110.743,106.129,113.079,107.1,115.267,108.039ZM67.684,98.887A46.2,46.2,0,0,1,48.087,64c-.058.954-.087,1.907-.087,2.89A46.086,46.086,0,0,0,61.443,99.448C63.547,99.211,65.632,99.013,67.684,98.887Z" transform="translate(90.703 16.91)" fill="#ad9359" opacity="0.45"/>
        <path id="Path_8851" data-name="Path 8851" d="M198.583,118.137a11.713,11.713,0,0,0-1.994-4.45c-5-6.444-20.487-6.877-34.126-7.253a121.511,121.511,0,0,1-21.99-1.792,78.088,78.088,0,0,1-14.968-5.49,91.61,91.61,0,0,0-31.815-9.16C77.912,88.518,54.333,94.818,40,99.326V93.546c14.333-4.508,37.912-10.807,53.689-9.333a91.61,91.61,0,0,1,31.815,9.16,78.077,78.077,0,0,0,14.968,5.49,121.511,121.511,0,0,0,21.99,1.792c13.639.376,29.127.809,34.126,7.253A12.618,12.618,0,0,1,198.583,118.137Z" transform="translate(75.586 54.691)" fill="#fff" opacity="0.5"/>
        <path id="Path_8852" data-name="Path 8852" d="M52.014,85.89v5.779H5.78A5.8,5.8,0,0,1,0,85.89,5.413,5.413,0,0,1,.781,83a5.768,5.768,0,0,0,5,2.89Z" transform="translate(0 52.812)" fill="#e8fbfc" opacity="0.3"/>
        <path id="Path_8853" data-name="Path 8853" d="M50.9,95.559v5.779A11.574,11.574,0,0,0,39.338,89.779H22V84H39.338A11.574,11.574,0,0,1,50.9,95.559Z" transform="translate(41.573 54.702)" fill="#f9dbd7" opacity="0.3"/>
        <path id="Path_8854" data-name="Path 8854" d="M52.014,115.99v5.779H5.78a5.768,5.768,0,0,0-5,2.89,5.771,5.771,0,0,1,5-8.669Z" transform="translate(0 115.151)" fill="#0f423c" opacity="0.25"/>
        <path id="Path_8855" data-name="Path 8855" d="M281.948,93.771c-4.132,12.05-80.852,75.622-112.464,93.133-27.6,15.286-45.772,6.646-59.035.318A320.968,320.968,0,0,0,40,164.249V158.47a320.968,320.968,0,0,1,70.449,22.973c13.263,6.328,31.439,14.968,59.035-.318,31.613-17.511,108.332-81.083,112.464-93.133a9.6,9.6,0,0,0,.462-1.792,14.516,14.516,0,0,1-.462,7.571Z" transform="translate(75.586 58.859)" fill="#9fa5aa" opacity="0.5"/>
        <path id="Path_8856" data-name="Path 8856" d="M50.9,111.99v5.779a11.574,11.574,0,0,1-11.559,11.559H22v-5.779H39.338A11.574,11.574,0,0,0,50.9,111.99Z" transform="translate(41.573 107.593)" fill="#a54b3f" opacity="0.5"/>
      </g>
      <g id="Group_1447" data-name="Group 1447" transform="translate(169.081 34.675)">
        <path id="Path_8857" data-name="Path 8857" d="M37.322,13.441H31.579a19.565,19.565,0,0,0-2.61-5.22h8.352a2.466,2.466,0,0,0,2.61-2.61A2.466,2.466,0,0,0,37.322,3H8.61A2.466,2.466,0,0,0,6,5.61,2.466,2.466,0,0,0,8.61,8.22h9.136a8.917,8.917,0,0,1,8.091,5.22H8.61A2.466,2.466,0,0,0,6,16.051a2.466,2.466,0,0,0,2.61,2.61H26.62a9,9,0,0,1-8.875,7.83H7.827c-.261,0-.261.261-.522.261a.256.256,0,0,0-.261.261h0c-.261.261-.522.522-.522.783V28.84h0V29.1c0,.261.261.783.261,1.044a.256.256,0,0,0,.261.261L22.7,48.678a2.59,2.59,0,1,0,3.915-3.393L14.352,31.712h3.393A14.644,14.644,0,0,0,32.1,18.661h5.22a2.466,2.466,0,0,0,2.61-2.61A2.466,2.466,0,0,0,37.322,13.441Z" transform="translate(-6 25.896)" fill="#2d4356"/>
        <path id="Path_8858" data-name="Path 8858" d="M37.322,13.441H31.579a19.565,19.565,0,0,0-2.61-5.22h8.352a2.466,2.466,0,0,0,2.61-2.61A2.466,2.466,0,0,0,37.322,3H8.61A2.466,2.466,0,0,0,6,5.61,2.466,2.466,0,0,0,8.61,8.22h9.136a8.917,8.917,0,0,1,8.091,5.22H8.61A2.466,2.466,0,0,0,6,16.051a2.466,2.466,0,0,0,2.61,2.61H26.62a9,9,0,0,1-8.875,7.83H7.827c-.261,0-.261.261-.522.261a.256.256,0,0,0-.261.261h0c-.261.261-.522.522-.522.783V28.84h0V29.1c0,.261.261.783.261,1.044a.256.256,0,0,0,.261.261L22.7,48.678a2.59,2.59,0,1,0,3.915-3.393L14.352,31.712h3.393A14.644,14.644,0,0,0,32.1,18.661h5.22a2.466,2.466,0,0,0,2.61-2.61A2.466,2.466,0,0,0,37.322,13.441Z" transform="translate(83.578 -3)" fill="#2d4356"/>
      </g>
    </g>
  </g>
</svg>
