<svg xmlns="http://www.w3.org/2000/svg" width="355.935" height="105" viewBox="0 0 355.935 105">
  <g id="Group_10" data-name="Group 10" transform="translate(-1231 -1324)">
    <g id="Group_7" data-name="Group 7">
      <path id="Path_33" data-name="Path 33" d="M49.594,0H33.646L25.2-14.689,16.711,0H1.168L17.879-24.8,1.887-48.875H17.564l8.176,14.2,8-14.2H48.965L32.883-25.021ZM98.5-14.375q-.494,4.357-4.537,8.85Q87.675,1.617,76.354,1.617A24.831,24.831,0,0,1,59.868-4.4q-7.143-6.02-7.143-19.586,0-12.713,6.446-19.5t16.733-6.783a25.662,25.662,0,0,1,11.006,2.291A19.28,19.28,0,0,1,95-40.744a24.676,24.676,0,0,1,3.729,10.107,65.275,65.275,0,0,1,.4,9.7H65.618q.27,7.367,4.627,10.332A10.9,10.9,0,0,0,76.624-8.76a9.18,9.18,0,0,0,6.424-2.246,10.668,10.668,0,0,0,2.381-3.369Zm-12.668-15q-.314-5.076-3.077-7.7a9.555,9.555,0,0,0-6.851-2.628,8.7,8.7,0,0,0-6.9,2.785,13.9,13.9,0,0,0-3.077,7.547Zm43.786,20.26V.449l-6.064.225q-9.074.314-12.4-3.145Q109-4.672,109-9.254V-39.4h-6.828v-9.119H109V-62.172h12.668v13.656h7.951V-39.4h-7.951v25.875q0,3.01.764,3.751t4.672.741q.584,0,1.235-.022T129.619-9.119Zm30.085,0V.449l-6.064.225q-9.074.314-12.4-3.145-2.156-2.2-2.156-6.783V-39.4h-6.828v-9.119h6.828V-62.172h12.668v13.656H159.7V-39.4h-7.951v25.875q0,3.01.764,3.751t4.672.741q.584,0,1.235-.022T159.7-9.119Zm7.938-57.1h12.8V0h-12.8Zm66.651,51.84q-.494,4.357-4.537,8.85-6.289,7.143-17.609,7.143A24.831,24.831,0,0,1,195.66-4.4q-7.143-6.02-7.143-19.586,0-12.713,6.446-19.5T211.7-50.268A25.662,25.662,0,0,1,222.7-47.977a19.28,19.28,0,0,1,8.086,7.232,24.676,24.676,0,0,1,3.729,10.107,65.277,65.277,0,0,1,.4,9.7H201.41q.27,7.367,4.627,10.332a10.9,10.9,0,0,0,6.379,1.842,9.18,9.18,0,0,0,6.424-2.246,10.668,10.668,0,0,0,2.381-3.369Zm-12.668-15q-.314-5.076-3.077-7.7a9.555,9.555,0,0,0-6.851-2.628,8.7,8.7,0,0,0-6.9,2.785,13.9,13.9,0,0,0-3.077,7.547Z" transform="translate(1352 1401)" fill="#7367f0"/>
      <g id="Group_22" data-name="Group 22">
        <path id="Path_1" data-name="Path 1" d="M30,0H75a30,30,0,0,1,30,30V75a30,30,0,0,1-30,30H30A30,30,0,0,1,0,75V30A30,30,0,0,1,30,0Z" transform="translate(1231 1324)" fill="#7367f0"/>
        <path id="Union_10" data-name="Union 10" d="M65.7,69.146l-.022.022L42.376,45.87,38.54,49.7,54.394,65.552,50.885,69.06,35.031,53.212l-15.709,15.7-3.509-3.508L38.867,42.362,0,3.508,3.509,0,27.839,24.321,31.7,20.465,15.843,4.617l3.509-3.508L35.205,16.957l15.709-15.7,3.509,3.508L31.348,27.829l11.06,11.056.022-.022,27.807,27.8-3.509,3.508ZM0,66.661,24.329,42.34l-3.857-3.856L4.619,54.332,1.109,50.824,16.963,34.976,1.254,19.272l3.509-3.508L31.316,42.308l-.032.032.032.032L3.509,70.169Zm38.921-38.8.032-.032-.032-.032L66.727,0l3.509,3.508L45.907,27.829l3.857,3.856L65.618,15.837l3.509,3.508L53.274,35.193,68.983,50.9l-3.509,3.508Z" transform="translate(1248.564 1341.598)" fill="#fff"/>
      </g>
    </g>
  </g>
</svg>
